<?xml version="1.0" encoding="UTF-8" standalone="no"?><!DOCTYPE svg PUBLIC "-//W3C//DTD SVG 1.1//EN" "http://www.w3.org/Graphics/SVG/1.1/DTD/svg11.dtd">
<svg width="100%" height="100%" viewBox="0 0 2134 2134" version="1.1" xmlns="http://www.w3.org/2000/svg" xmlns:xlink="http://www.w3.org/1999/xlink" xml:space="preserve" xmlns:serif="http://www.serif.com/" style="fill-rule:evenodd;clip-rule:evenodd;stroke-linecap:round;stroke-linejoin:round;stroke-miterlimit:1.5;">
<g id="favicon">
<g id="rbr-white">
<path d="M1439.18,1079.73c154.612,-18.659 224.005,-84.897 224.005,-184.722c0,-112.885 -97.393,-174.459 -273.92,-174.459l-181.396,-0c-42.609,-0 -66.958,-0.933 -93.741,-2.799c2.435,14.927 3.652,26.122 3.652,69.97l0,557.897c0,23.323 0,46.647 -2.435,69.97l34.088,0c-3.652,-23.323 -3.652,-46.647 -3.652,-69.97l-0,-261.223l264.181,0l214.266,258.424c19.479,23.324 36.523,46.647 48.697,72.769l49.914,0c-24.348,-23.323 -45.045,-48.513 -64.523,-72.769l-219.136,-263.088Zm-745.032,-0c-154.613,-18.659 -224.006,-84.897 -224.006,-184.722c-0,-112.885 97.394,-174.459 273.92,-174.459l181.396,-0c42.61,-0 66.958,-0.933 93.741,-2.799c-2.434,14.927 -3.652,26.122 -3.652,69.97l0,557.897c0,23.323 0,46.647 2.435,69.97l-34.088,0c3.652,-23.323 3.652,-46.647 3.652,-69.97l0,-261.223l-264.18,0l-214.267,258.424c-19.478,23.324 -36.522,46.647 -48.696,72.769l-49.915,0c24.349,-23.323 45.045,-48.513 64.524,-72.769l219.136,-263.088Zm451.633,-13.994l-0,-325.595l238.615,-0c163.134,-0 250.789,53.177 250.789,155.8c-0,111.02 -93.742,169.795 -270.268,169.795l-219.136,-0Zm-158.235,-0l0,-325.595l-238.614,-0c-163.135,-0 -250.789,53.177 -250.789,155.8c-0,111.02 93.741,169.795 270.267,169.795l219.136,-0Z" style="fill:#fff;fill-rule:nonzero;"/>
    <path d="M1101.39,1080.84c70.537,-11.059 111.749,-48.662 111.749,-102.854c-0,-63.04 -57.856,-97.325 -161.679,-97.325l-104.616,0c-19.814,0 -41.212,0 -61.026,-1.659c1.585,11.613 2.378,22.12 2.378,41.474l-0,332.342c-0,18.801 -0.793,29.861 -2.378,41.473c16.644,-1.106 32.494,-1.659 61.026,-1.659l121.259,0c110.956,0 179.908,-41.473 179.908,-107.831c-0,-61.381 -51.516,-96.219 -146.621,-102.302l0,-1.659Zm-53.1,-188.566c96.69,-0 145.828,30.414 145.828,85.712c-0,64.699 -53.893,98.984 -141.866,98.984l-145.828,-0l0,-184.696l141.866,-0Zm-141.866,388.746l0,-192.991l142.658,0c130.77,0 179.908,38.156 179.908,96.772c-0,56.404 -55.478,96.219 -160.887,96.219l-161.679,-0Z" style="fill:#fff;fill-rule:nonzero;"/>
</g>
</g>
</svg>
